:SAMPLES-PER-SECOND 25
:FULLY-SPECIFIED
:DEGREES
333
root  25.1628 40.0116 -94.9177 2.27614 1.67449 -0.577133
RightUpLeg  -4.05106 -0.919051 -0.569242
RightLeg  10.6642 -5.00821 -1.36432
RightFoot  -10.3649 -0.102368 3.72867
RightToes  2.84633e-005 7.89722e-005 -0.000426369
Spine  1.13757 0.0486854 0.724173
Spine1  2.27231 0.062462 2.23442
HEad  8.97184 -6.77586 -5.3029
LeftShoulder1  -3.88251e-019 0 -3.92111e-022
LeftArm  -37.5648 11.0227 -85.8492
LeftForeArm  33.0952 2.01117 0.567126
LeftHand  -0.548619 -4.80487 6.54036
RightShoulder  7.45443e-017 -2.42657e-020 1.96277e-018
RightArm  -19.1028 -8.57751 76.0698
RightForeArm  32.2469 7.97835 11.1768
RightHand  -1.54094 11.1872 -11.1441
LeftUpLeg  -2.62437 -0.306859 -3.56657
LeftLeg  3.4208 -6.15683 -1.55514
LeftFoot  -5.33702 -0.0364226 1.30511
LeftToes  3.91355e-005 3.11907e-005 -4.10385e-006
334
root  25.1633 39.9142 -94.7718 2.64453 0.981825 -0.324798
RightUpLeg  -5.43841 -1.79432 -1.09203
RightLeg  13.018 -3.54912 -1.02413
RightFoot  -11.5944 -0.0669291 4.80178
RightToes  2.84633e-005 7.89722e-005 -0.000426369
Spine  1.13439 -0.0588299 0.588727
Spine1  2.26354 -0.15209 2.14371
HEad  8.72882 -6.19954 -5.37764
LeftShoulder1  -3.88251e-019 0 -3.92111e-022
LeftArm  -37.2397 9.04626 -86.5676
LeftForeArm  35.5955 1.94423 0.647871
LeftHand  -0.655466 -4.51868 7.96416
RightShoulder  7.45443e-017 -2.42657e-020 1.96277e-018
RightArm  -19.829 -7.91214 76.2168
RightForeArm  33.2562 7.35019 10.9884
RightHand  -1.45234 10.8846 -10.7089
LeftUpLeg  -3.22877 -0.256017 -3.70075
LeftLeg  4.4122 -5.62298 -1.88446
LeftFoot  -6.25609 -0.0228488 1.35941
LeftToes  3.91355e-005 3.11907e-005 -4.10385e-006
335
root  25.1292 39.7969 -94.5987 2.97273 -0.129439 -0.0166594
RightUpLeg  -7.82114 -3.28923 -1.53333
RightLeg  17.1619 -1.76911 -0.791498
RightFoot  -12.2642 -0.0263221 7.01355
RightToes  2.84633e-005 7.89722e-005 -0.000426369
Spine  1.13119 -0.137424 0.303299
Spine1  2.25591 -0.307911 1.95924
HEad  8.67931 -5.55795 -5.39977
LeftShoulder1  -3.88251e-019 0 -3.92111e-022
LeftArm  -36.5381 7.9195 -86.8456
LeftForeArm  37.5322 1.94203 0.17525
LeftHand  -0.646019 -4.41708 7.92657
RightShoulder  7.45443e-017 -2.42657e-020 1.96277e-018
RightArm  -20.7064 -7.27556 76.2503
RightForeArm  35.3429 6.17072 10.8152
RightHand  -1.15536 10.4807 -8.81424
LeftUpLeg  -3.76155 -0.178727 -3.88528
LeftLeg  5.44323 -4.76903 -2.12628
LeftFoot  -7.31046 -0.00352212 1.35089
LeftToes  3.91355e-005 3.11907e-005 -4.10385e-006
336
root  25.0746 39.7023 -94.4141 3.28971 -1.59894 0.139413
RightUpLeg  -11.0636 -4.26105 -1.77451
RightLeg  22.3131 -1.47125 -0.878843
RightFoot  -11.9049 -0.0399107 8.33494
RightToes  2.84633e-005 7.89722e-005 -0.000426369
Spine  1.13858 -0.257868 -0.0285793
Spine1  2.27238 -0.539343 1.81088
HEad  8.42096 -4.55215 -5.41028
LeftShoulder1  -3.88251e-019 0 -3.92111e-022
LeftArm  -35.8707 7.58763 -86.4644
LeftForeArm  38.3394 2.00806 -0.566452
LeftHand  -0.655416 -4.49139 7.98159
RightShoulder  7.45443e-017 -2.42657e-020 1.96277e-018
RightArm  -21.4965 -6.61894 76.4302
RightForeArm  37.5519 4.914 10.5492
RightHand  -1.07871 10.5335 -8.23788
LeftUpLeg  -4.16165 -0.0421717 -3.9521
LeftLeg  6.27067 -3.59224 -2.17051
LeftFoot  -8.25043 0.0136203 1.33443
LeftToes  3.91355e-005 3.11907e-005 -4.10385e-006
337
root  24.9998 39.6568 -94.1969 3.55937 -3.17418 -0.00327536
RightUpLeg  -14.3624 -4.19082 -1.69777
RightLeg  26.5227 -3.09095 -1.89964
RightFoot  -11.3524 -0.0761578 7.01948
RightToes  2.84633e-005 7.89722e-005 -0.000426369
Spine  1.23154 -0.434218 -0.141245
Spine1  2.46635 -0.872164 2.01071
HEad  7.74923 -3.54473 -5.54774
LeftShoulder1  -3.88251e-019 0 -3.92111e-022
LeftArm  -35.6642 7.12368 -85.8403
LeftForeArm  38.1537 2.06209 -0.920486
LeftHand  -0.712212 -4.39312 8.72789
RightShoulder  7.45443e-017 -2.42657e-020 1.96277e-018
RightArm  -21.7622 -6.27024 76.4693
RightForeArm  38.2667 4.6527 10.3513
RightHand  -1.26061 10.6675 -9.47842
LeftUpLeg  -4.31399 0.163588 -3.75367
LeftLeg  6.87371 -2.26653 -1.98271
LeftFoot  -9.03721 0.0275438 1.33397
LeftToes  3.91355e-005 3.11907e-005 -4.10385e-006
338
root  24.8731 39.6795 -93.9022 3.67139 -4.35817 -0.504098
RightUpLeg  -16.6262 -3.44584 -1.29327
RightLeg  27.5579 -4.9884 -3.03519
RightFoot  -10.5156 -0.107901 5.0767
RightToes  2.84633e-005 7.89722e-005 -0.000426369
Spine  1.40921 -0.687257 0.116177
Spine1  2.83341 -1.35543 2.60264
HEad  7.13682 -2.86931 -5.73359
LeftShoulder1  -3.88251e-019 0 -3.92111e-022
LeftArm  -35.5905 6.09632 -85.2779
LeftForeArm  37.6792 2.06308 -0.819552
LeftHand  -0.742584 -4.29332 9.17354
RightShoulder  7.45443e-017 -2.42657e-020 1.96277e-018
RightArm  -21.6061 -6.58424 76.0766
RightForeArm  37.0368 5.30252 10.4266
RightHand  -1.34403 10.3565 -10.2614
LeftUpLeg  -3.92172 0.477004 -3.17276
LeftLeg  7.04136 -1.45942 -1.67306
LeftFoot  -9.62065 0.0376929 1.34083
LeftToes  3.91355e-005 3.11907e-005 -4.10385e-006
339
root  24.6758 39.725 -93.5413 3.77689 -4.94622 -1.07279
RightUpLeg  -17.8416 -2.83128 -0.826825
RightLeg  25.2849 -5.1729 -2.8781
RightFoot  -9.02189 -0.149075 4.27391
RightToes  2.84633e-005 7.89722e-005 -0.000426369
Spine  1.55826 -1.02154 0.536114
Spine1  3.13816 -2.00113 3.14926
HEad  6.88743 -2.39549 -5.75514
LeftShoulder1  -3.88251e-019 0 -3.92111e-022
LeftArm  -35.2547 4.61617 -84.6077
LeftForeArm  37.8427 2.00052 -0.359224
LeftHand  -0.743705 -4.49596 9.01172
RightShoulder  7.45443e-017 -2.42657e-020 1.96277e-018
RightArm  -21.5476 -7.34768 75.5232
RightForeArm  35.3564 5.84882 10.4888
RightHand  -1.26246 9.8347 -9.97526
LeftUpLeg  -3.32232 0.821157 -2.41145
LeftLeg  7.01359 -1.29729 -1.41087
LeftFoot  -10.0977 0.0489686 1.07409
LeftToes  3.91355e-005 3.11907e-005 -4.10385e-006
340
root  24.4232 39.7533 -93.1324 4.08403 -5.33667 -1.57806
RightUpLeg  -18.5789 -1.92791 -0.439341
RightLeg  21.0632 -3.79122 -1.82504
RightFoot  -7.17173 -0.164159 3.15668
RightToes  2.84633e-005 7.89722e-005 -0.000426369
Spine  1.61109 -1.32927 0.980559
Spine1  3.24032 -2.60263 3.50655
HEad  6.77539 -1.9897 -5.58777
LeftShoulder1  -3.88251e-019 0 -3.92111e-022
LeftArm  -34.8362 3.03044 -83.7422
LeftForeArm  38.7991 1.89329 0.355308
LeftHand  -0.736848 -4.6044 8.83965
RightShoulder  7.45443e-017 -2.42657e-020 1.96277e-018
RightArm  -22.2268 -8.20704 75.1184
RightForeArm  34.9759 5.83624 10.2348
RightHand  -1.22802 9.64906 -9.82926
LeftUpLeg  -2.90605 1.22579 -1.56187
LeftLeg  7.14027 -1.29948 -1.26932
LeftFoot  -10.6912 0.0599449 0.757294
LeftToes  3.91355e-005 3.11907e-005 -4.10385e-006
341
root  24.1176 39.7657 -92.6462 4.54931 -5.8291 -2.09851
RightUpLeg  -18.8679 0.199135 -0.173234
RightLeg  15.5046 -2.42792 -0.978408
RightFoot  -4.29178 -0.135406 1.7237
RightToes  2.84633e-005 7.89722e-005 -0.000426369
Spine  1.57306 -1.54329 1.5038
Spine1  3.14319 -3.04847 3.84796
HEad  6.73815 -1.61215 -5.40169
LeftShoulder1  -3.88251e-019 0 -3.92111e-022
LeftArm  -34.5644 1.95141 -82.8463
LeftForeArm  39.6129 1.82916 0.762817
LeftHand  -0.719768 -4.29923 8.89655
RightShoulder  7.45443e-017 -2.42657e-020 1.96277e-018
RightArm  -23.3288 -9.13922 74.7666
RightForeArm  35.5465 5.49298 9.65413
RightHand  -1.22611 9.70582 -9.77995
LeftUpLeg  -2.52504 1.7516 -0.613604
LeftLeg  7.34467 -1.40019 -1.17968
LeftFoot  -11.6039 0.0708586 0.516052
LeftToes  3.91355e-005 3.11907e-005 -4.10385e-006
342
root  23.7374 39.7408 -92.0455 4.90475 -6.23486 -2.38688
RightUpLeg  -18.4356 1.39847 0.368085
RightLeg  9.75899 -0.367747 -0.911388
RightFoot  0.0579352 -0.196481 1.94629
RightToes  2.84633e-005 7.89722e-005 -0.000426369
Spine  1.51258 -1.70623 1.95412
Spine1  2.98339 -3.42766 4.00714
HEad  6.81093 -1.2662 -5.29463
LeftShoulder1  -3.88251e-019 0 -3.92111e-022
LeftArm  -34.303 1.55223 -82.0053
LeftForeArm  39.4389 1.85028 0.594635
LeftHand  -0.706945 -4.0822 8.93079
RightShoulder  7.45443e-017 -2.42657e-020 1.96277e-018
RightArm  -24.3456 -10.1977 74.464
RightForeArm  35.252 5.00785 8.80376
RightHand  -1.19455 9.67792 -9.55618
LeftUpLeg  -1.90733 2.17029 0.111221
LeftLeg  7.64295 -1.52343 -0.964633
LeftFoot  -12.7716 0.0737004 -0.212123
LeftToes  3.91355e-005 3.11907e-005 -4.10385e-006
343
root  23.2841 39.6886 -91.3089 4.79419 -6.59378 -2.54594
RightUpLeg  -17.3997 1.5655 1.26621
RightLeg  6.93824 1.31926 -1.17532
RightFoot  3.03887 -0.325263 2.76365
RightToes  2.84633e-005 7.89722e-005 -0.000426369
Spine  1.57922 -1.76604 2.20835
Spine1  3.09064 -3.58134 4.08326
HEad  6.9537 -1.10278 -5.30455
LeftShoulder1  -3.88251e-019 0 -3.92111e-022
LeftArm  -34.0543 1.6746 -81.3015
LeftForeArm  37.9898 1.991 0.299778
LeftHand  -0.712531 -4.28921 8.81916
RightShoulder  7.45443e-017 -2.42657e-020 1.96277e-018
RightArm  -25.3604 -11.3442 74.3764
RightForeArm  32.397 4.50917 7.79267
RightHand  -1.17824 9.56798 -9.49729
LeftUpLeg  -0.518025 2.36927 0.767884
LeftLeg  7.92393 -1.26761 -0.581938
LeftFoot  -14.0288 0.0614553 -0.972042
LeftToes  3.91355e-005 3.11907e-005 -4.10385e-006
344
root  22.7754 39.6476 -90.4511 4.3298 -7.28623 -3.07696
RightUpLeg  -16.1271 2.7865 2.61248
RightLeg  7.9241 1.10955 -1.45022
RightFoot  2.13925 -0.233927 2.08616
RightToes  2.84633e-005 7.89722e-005 -0.000426369
Spine  1.72426 -1.62352 2.41942
Spine1  3.3791 -3.29659 4.53684
HEad  7.45248 -1.01445 -5.62439
LeftShoulder1  -3.88251e-019 0 -3.92111e-022
LeftArm  -34.2411 3.00331 -81.061
LeftForeArm  34.9786 1.98739 -0.107794
LeftHand  -0.735314 -4.42407 8.97338
RightShoulder  7.45443e-017 -2.42657e-020 1.96277e-018
RightArm  -26.541 -12.397 74.2952
RightForeArm  28.3139 3.93235 6.72406
RightHand  -1.11499 9.35637 -9.13186
LeftUpLeg  1.38453 2.68985 1.85224
LeftLeg  8.58065 -0.830483 -0.138908
LeftFoot  -15.6493 0.0642438 -0.821415
LeftToes  3.91355e-005 3.11907e-005 -4.10385e-006
